<svg xmlns="http://www.w3.org/2000/svg" viewBox="0 0 1000 570" role="img" aria-labelledby="title desc">
<title id="title">常见时间复杂度函数增长曲线</title>
<desc id="desc">Python 计算的常数、对数、线性、多项式、指数、阶乘和自幂函数增长曲线，纵轴使用对数刻度。</desc>
<style>
:root{--bg:#fff;--panel:#f8fafc;--text:#172033;--muted:#5f6f82;--grid:#d7dee8;--axis:#64748b;--c1:#64748b;--c2:#0f766e;--c3:#2563eb;--c4:#7c3aed;--c5:#d97706;--c6:#dc2626}
@media(prefers-color-scheme:dark){:root{--bg:#0f172a;--panel:#162131;--text:#eef2f7;--muted:#b5c0cf;--grid:#34445a;--axis:#94a3b8;--c1:#94a3b8;--c2:#34d399;--c3:#60a5fa;--c4:#a78bfa;--c5:#fbbf24;--c6:#fb7185}}
text{font-family:"Microsoft YaHei","Noto Sans CJK SC",sans-serif;fill:var(--text)}.bg{fill:var(--bg)}.panel{fill:var(--panel);stroke:var(--grid);stroke-width:1.5}.grid{stroke:var(--grid);stroke-width:1}.axis{stroke:var(--axis);stroke-width:1.5}.curve{fill:none;stroke-width:3}.title{font-size:27px;font-weight:700}.sub{font-size:14px;fill:var(--muted)}.panel-title{font-size:18px;font-weight:700}.tick{font-size:12px;fill:var(--muted)}.legend{font-size:13px;font-weight:700}
</style>
<rect class="bg" width="1000" height="570" rx="18"/>
<text class="title" x="40" y="45">常见时间复杂度的增长速度</text>
<text class="sub" x="40" y="71">由 Python 计算代表函数；纵轴使用 log₁₀ 刻度，否则指数、阶乘和 nⁿ 会把低阶曲线全部压在横轴附近</text>

<rect class="panel" x="35" y="95" width="450" height="420" rx="14"/>
<text class="panel-title" x="57" y="127">低阶与多项式：n = 1…32</text>
<line class="grid" x1="91" y1="450.0" x2="457" y2="450.0"/>
<text class="tick" x="82" y="454.0" text-anchor="end">1</text>
<line class="grid" x1="91" y1="399.0" x2="457" y2="399.0"/>
<text class="tick" x="82" y="403.0" text-anchor="end">10^1</text>
<line class="grid" x1="91" y1="348.0" x2="457" y2="348.0"/>
<text class="tick" x="82" y="352.0" text-anchor="end">10^2</text>
<line class="grid" x1="91" y1="297.0" x2="457" y2="297.0"/>
<text class="tick" x="82" y="301.0" text-anchor="end">10^3</text>
<line class="grid" x1="91" y1="246.0" x2="457" y2="246.0"/>
<text class="tick" x="82" y="250.0" text-anchor="end">10^4</text>
<line class="grid" x1="91" y1="195.0" x2="457" y2="195.0"/>
<text class="tick" x="82" y="199.0" text-anchor="end">10^5</text>
<line class="grid" x1="91.0" y1="195" x2="91.0" y2="450"/>
<text class="tick" x="91.0" y="470" text-anchor="middle">1</text>
<line class="grid" x1="268.1" y1="195" x2="268.1" y2="450"/>
<text class="tick" x="268.1" y="470" text-anchor="middle">16</text>
<line class="grid" x1="457.0" y1="195" x2="457.0" y2="450"/>
<text class="tick" x="457.0" y="470" text-anchor="middle">32</text>
<line class="axis" x1="91" y1="195" x2="91" y2="450"/>
<line class="axis" x1="91" y1="450" x2="457" y2="450"/>
<text class="tick" x="274.0" y="493" text-anchor="middle">问题规模 n</text>
<line x1="57" y1="150" x2="77" y2="150" stroke="var(--c1)" stroke-width="3"/>
<text class="legend" x="84" y="154">O(1)</text>
<polyline class="curve" points="91.0,450.0 102.8,450.0 114.6,450.0 126.4,450.0 138.2,450.0 150.0,450.0 161.8,450.0 173.6,450.0 185.5,450.0 197.3,450.0 209.1,450.0 220.9,450.0 232.7,450.0 244.5,450.0 256.3,450.0 268.1,450.0 279.9,450.0 291.7,450.0 303.5,450.0 315.3,450.0 327.1,450.0 338.9,450.0 350.7,450.0 362.5,450.0 374.4,450.0 386.2,450.0 398.0,450.0 409.8,450.0 421.6,450.0 433.4,450.0 445.2,450.0 457.0,450.0" stroke="var(--c1)"/>
<line x1="195" y1="150" x2="215" y2="150" stroke="var(--c2)" stroke-width="3"/>
<text class="legend" x="222" y="154">O(log n)</text>
<polyline class="curve" points="91.0,450.0 102.8,450.0 114.6,439.8 126.4,434.6 138.2,431.3 150.0,429.0 161.8,427.1 173.6,425.7 185.5,424.4 197.3,423.4 209.1,422.5 220.9,421.7 232.7,421.0 244.5,420.4 256.3,419.8 268.1,419.3 279.9,418.8 291.7,418.4 303.5,418.0 315.3,417.6 327.1,417.2 338.9,416.9 350.7,416.6 362.5,416.3 374.4,416.0 386.2,415.7 398.0,415.5 409.8,415.2 421.6,415.0 433.4,414.8 445.2,414.6 457.0,414.4" stroke="var(--c2)"/>
<line x1="333" y1="150" x2="353" y2="150" stroke="var(--c3)" stroke-width="3"/>
<text class="legend" x="360" y="154">O(n)</text>
<polyline class="curve" points="91.0,450.0 102.8,434.6 114.6,425.7 126.4,419.3 138.2,414.4 150.0,410.3 161.8,406.9 173.6,403.9 185.5,401.3 197.3,399.0 209.1,396.9 220.9,395.0 232.7,393.2 244.5,391.5 256.3,390.0 268.1,388.6 279.9,387.2 291.7,386.0 303.5,384.8 315.3,383.6 327.1,382.6 338.9,381.5 350.7,380.6 362.5,379.6 374.4,378.7 386.2,377.8 398.0,377.0 409.8,376.2 421.6,375.4 433.4,374.7 445.2,373.9 457.0,373.2" stroke="var(--c3)"/>
<line x1="57" y1="172" x2="77" y2="172" stroke="var(--c4)" stroke-width="3"/>
<text class="legend" x="84" y="176">O(n log n)</text>
<polyline class="curve" points="91.0,450.0 102.8,434.6 114.6,415.5 126.4,403.9 138.2,395.7 150.0,389.3 161.8,384.0 173.6,379.6 185.5,375.8 197.3,372.4 209.1,369.4 220.9,366.7 232.7,364.2 244.5,361.9 256.3,359.8 268.1,357.9 279.9,356.1 291.7,354.4 303.5,352.7 315.3,351.2 327.1,349.8 338.9,348.4 350.7,347.1 362.5,345.9 374.4,344.7 386.2,343.6 398.0,342.5 409.8,341.4 421.6,340.4 433.4,339.4 445.2,338.5 457.0,337.6" stroke="var(--c4)"/>
<line x1="195" y1="172" x2="215" y2="172" stroke="var(--c5)" stroke-width="3"/>
<text class="legend" x="222" y="176">O(n²)</text>
<polyline class="curve" points="91.0,450.0 102.8,419.3 114.6,401.3 126.4,388.6 138.2,378.7 150.0,370.6 161.8,363.8 173.6,357.9 185.5,352.7 197.3,348.0 209.1,343.8 220.9,339.9 232.7,336.4 244.5,333.1 256.3,330.0 268.1,327.2 279.9,324.5 291.7,322.0 303.5,319.6 315.3,317.3 327.1,315.1 338.9,313.1 350.7,311.1 362.5,309.2 374.4,307.4 386.2,305.7 398.0,304.0 409.8,302.4 421.6,300.8 433.4,299.3 445.2,297.9 457.0,296.5" stroke="var(--c5)"/>
<line x1="333" y1="172" x2="353" y2="172" stroke="var(--c6)" stroke-width="3"/>
<text class="legend" x="360" y="176">O(n³)</text>
<polyline class="curve" points="91.0,450.0 102.8,403.9 114.6,377.0 126.4,357.9 138.2,343.1 150.0,330.9 161.8,320.7 173.6,311.8 185.5,304.0 197.3,297.0 209.1,290.7 220.9,284.9 232.7,279.6 244.5,274.6 256.3,270.1 268.1,265.8 279.9,261.7 291.7,257.9 303.5,254.4 315.3,250.9 327.1,247.7 338.9,244.6 350.7,241.7 362.5,238.8 374.4,236.1 386.2,233.5 398.0,231.0 409.8,228.6 421.6,226.3 433.4,224.0 445.2,221.8 457.0,219.7" stroke="var(--c6)"/>
<rect class="panel" x="515" y="95" width="450" height="420" rx="14"/>
<text class="panel-title" x="537" y="127">指数、阶乘与自幂：n = 1…10</text>
<line class="grid" x1="571" y1="450.0" x2="937" y2="450.0"/>
<text class="tick" x="562" y="454.0" text-anchor="end">1</text>
<line class="grid" x1="571" y1="424.5" x2="937" y2="424.5"/>
<text class="tick" x="562" y="428.5" text-anchor="end">10^1</text>
<line class="grid" x1="571" y1="399.0" x2="937" y2="399.0"/>
<text class="tick" x="562" y="403.0" text-anchor="end">10^2</text>
<line class="grid" x1="571" y1="373.5" x2="937" y2="373.5"/>
<text class="tick" x="562" y="377.5" text-anchor="end">10^3</text>
<line class="grid" x1="571" y1="348.0" x2="937" y2="348.0"/>
<text class="tick" x="562" y="352.0" text-anchor="end">10^4</text>
<line class="grid" x1="571" y1="322.5" x2="937" y2="322.5"/>
<text class="tick" x="562" y="326.5" text-anchor="end">10^5</text>
<line class="grid" x1="571" y1="297.0" x2="937" y2="297.0"/>
<text class="tick" x="562" y="301.0" text-anchor="end">10^6</text>
<line class="grid" x1="571" y1="271.5" x2="937" y2="271.5"/>
<text class="tick" x="562" y="275.5" text-anchor="end">10^7</text>
<line class="grid" x1="571" y1="246.0" x2="937" y2="246.0"/>
<text class="tick" x="562" y="250.0" text-anchor="end">10^8</text>
<line class="grid" x1="571" y1="220.5" x2="937" y2="220.5"/>
<text class="tick" x="562" y="224.5" text-anchor="end">10^9</text>
<line class="grid" x1="571" y1="195.0" x2="937" y2="195.0"/>
<text class="tick" x="562" y="199.0" text-anchor="end">10^10</text>
<line class="grid" x1="571.0" y1="195" x2="571.0" y2="450"/>
<text class="tick" x="571.0" y="470" text-anchor="middle">1</text>
<line class="grid" x1="774.3" y1="195" x2="774.3" y2="450"/>
<text class="tick" x="774.3" y="470" text-anchor="middle">6</text>
<line class="grid" x1="937.0" y1="195" x2="937.0" y2="450"/>
<text class="tick" x="937.0" y="470" text-anchor="middle">10</text>
<line class="axis" x1="571" y1="195" x2="571" y2="450"/>
<line class="axis" x1="571" y1="450" x2="937" y2="450"/>
<text class="tick" x="754.0" y="493" text-anchor="middle">问题规模 n</text>
<line x1="537" y1="150" x2="557" y2="150" stroke="var(--c3)" stroke-width="3"/>
<text class="legend" x="564" y="154">O(2ⁿ)</text>
<polyline class="curve" points="571.0,442.3 611.7,434.6 652.3,427.0 693.0,419.3 733.7,411.6 774.3,403.9 815.0,396.3 855.7,388.6 896.3,380.9 937.0,373.2" stroke="var(--c3)"/>
<line x1="675" y1="150" x2="695" y2="150" stroke="var(--c5)" stroke-width="3"/>
<text class="legend" x="702" y="154">O(n!)</text>
<polyline class="curve" points="571.0,450.0 611.7,442.3 652.3,430.2 693.0,414.8 733.7,397.0 774.3,377.1 815.0,355.6 855.7,332.6 896.3,308.2 937.0,282.7" stroke="var(--c5)"/>
<line x1="813" y1="150" x2="833" y2="150" stroke="var(--c6)" stroke-width="3"/>
<text class="legend" x="840" y="154">O(nⁿ)</text>
<polyline class="curve" points="571.0,450.0 611.7,434.6 652.3,413.5 693.0,388.6 733.7,360.9 774.3,330.9 815.0,299.1 855.7,265.8 896.3,231.0 937.0,195.0" stroke="var(--c6)"/>
<text class="sub" x="500" y="550" text-anchor="middle">曲线只表示增长阶的代表函数；大 O 比较关注 n 足够大时的趋势，不表示实际运行时间必然相同</text>
</svg>
